<?xml version="1.0" encoding="UTF-8"?>
<svg id="Layer_1" xmlns="http://www.w3.org/2000/svg" version="1.1" viewBox="0 0 1188.1 1080">
  <!-- Generator: Adobe Illustrator 29.1.0, SVG Export Plug-In . SVG Version: 2.1.0 Build 142)  -->
  <defs>
    <style>
      .st0 {
        fill: #433f3e;
      }

      .st1 {
        fill: #5ec2bd;
      }
    </style>
  </defs>
  <polygon class="st1" points="594.1 287.4 390.8 638.7 594.1 559.5 797.3 638.7 594.1 287.4"/>
  <path class="st0" d="M815.1,608.8c-1.3,0-2.6-.2-3.8-.7l-217.2-84.6-217.2,84.6c-4.2,1.6-8.9.4-11.8-3s-3.4-8.3-1.1-12.1l221-382.1c1.9-3.3,5.4-5.3,9.1-5.3s7.2,2,9.1,5.3l221,382.1c2.2,3.9,1.8,8.7-1.1,12.1-2,2.4-5,3.7-8,3.7ZM594.1,237.2l-196.8,340.3,193-75.2c2.5-1,5.2-1,7.7,0l193,75.2-196.8-340.3Z"/>
  <g>
    <path class="st1" d="M257.3,808.5l-10.9-31.4h-47.7l-10.7,31.4h-20.2l42.8-119.6h24.4l42.8,119.6h-20.5ZM222.6,706.9l-18.5,53.3h37.2l-18.7-53.3Z"/>
    <path class="st1" d="M364.6,808.5l-39-52.6-11.2,12.5v40.1h-19.2v-119.6h19.2v53.8l47.8-53.8h22.9l-46.7,52.4,50,67.2h-23.9Z"/>
    <path class="st1" d="M467.2,808.5l-22.9-47h-22.6v47h-19.2v-119.6h40c26,0,42.4,12.1,42.4,35.5s-8.7,28.3-22.4,33.3l24.8,50.8h-20.2ZM442.2,745.2c14.1,0,23.1-7,23.1-20.9s-8.3-19.1-23.4-19.1h-20.2v39.9h20.5Z"/>
    <path class="st1" d="M501.4,748.8c0-38.3,21-61.8,54.5-61.8s54.5,23.3,54.5,61.8-21,62-54.5,62-54.5-23.5-54.5-62ZM590.7,748.8c0-28.2-12.2-45.1-34.8-45.1s-34.8,16.9-34.8,45.1,11.9,44.9,34.8,44.9,34.8-16.9,34.8-44.9Z"/>
    <path class="st0" d="M632.6,808.5v-119.6h66.5v16.4h-47.3v35.3h44.1v16.6h-44.1v51.3h-19.2Z"/>
    <path class="st0" d="M720.1,808.5v-119.6h19.2v119.6h-19.2Z"/>
    <path class="st0" d="M829.7,723.6c-1.2-18-14.6-21.2-25.3-21.2s-22.2,4.5-22.2,16c0,30.1,67.5,11.4,67.5,56.7s-15.1,35.6-45.5,35.6-43.6-4.1-45.1-39.4h19.2c.7,18,14.2,23.5,27.7,23.5s24.1-5,24.1-17.3c0-30.7-67.4-10.7-67.4-57.6s21.5-33.1,43.6-33.1,41.1,5.2,42.6,36.7h-19.2Z"/>
    <path class="st0" d="M869.9,808.5v-119.6h19.2v119.6h-19.2Z"/>
    <path class="st0" d="M911.3,748.8c0-38.3,21-61.8,54.5-61.8s54.5,23.3,54.5,61.8-21,62-54.5,62-54.5-23.5-54.5-62ZM1000.5,748.8c0-28.2-12.2-45.1-34.8-45.1s-34.8,16.9-34.8,45.1,11.9,44.9,34.8,44.9,34.8-16.9,34.8-44.9Z"/>
  </g>
  <g>
    <path class="st0" d="M222,873.8v-30.9h18.3v4.9h-12.2v8.2h11.4v4.9h-11.4v12.9h-6Z"/>
    <path class="st0" d="M257.1,873.8v-30.9h6v30.9h-6Z"/>
    <path class="st0" d="M298.3,852.2c-.3-4.4-3.6-5.2-6.3-5.2s-5.4,1-5.4,3.7c0,7.2,18,2.7,18,14.3s-4,9.5-12.6,9.5-12.1-1.1-12.5-10.5h6c.2,4.5,3.7,5.8,7.1,5.8s5.8-1.1,5.8-3.9c0-7.3-18-2.4-18-14.6s6-8.8,12.3-8.8,11.3,1.5,11.7,9.8h-6Z"/>
    <path class="st0" d="M321.1,873.8v-30.9h6v30.9h-6Z"/>
    <path class="st0" d="M344.2,858.3c0-9.9,5.7-16,14.9-16s14.9,6.1,14.9,16-5.7,16.1-14.9,16.1-14.9-6.1-14.9-16.1ZM367.8,858.3c0-6.8-3-11-8.7-11s-8.7,4.1-8.7,11,3,10.9,8.7,10.9,8.7-4.1,8.7-10.9Z"/>
    <path class="st0" d="M395.3,873.8v-26h-9.3v-4.9h24.7v4.9h-9.3v26h-6Z"/>
    <path class="st0" d="M426.2,873.8v-30.9h18.7v4.9h-12.6v7.9h11.8v4.7h-11.8v8.4h13.2v5h-19.2Z"/>
    <path class="st0" d="M479.6,873.8l-5.9-11.7h-5.3v11.7h-6v-30.9h11.1c7.1,0,11.7,3.2,11.7,9.4s-2.2,7.3-5.7,8.6l6.5,12.9h-6.3ZM473.1,857.2c3.6,0,5.9-1.7,5.9-5s-2.1-4.5-5.9-4.5h-4.7v9.5h4.8Z"/>
    <path class="st0" d="M523.3,873.8l-2.7-7.8h-12.2l-2.6,7.8h-6.3l11.2-30.9h7.8l11.2,30.9h-6.4ZM514.4,848.1l-4.6,13.1h9.1l-4.5-13.1Z"/>
    <path class="st0" d="M545.3,873.8v-30.9h11.1c7,0,11.7,3.3,11.7,9.9s-4.7,10.1-11.6,10.1h-5.1v11h-6ZM556,858c3.6,0,6-1.7,6-5.2s-2.6-5-6.9-5h-3.7v10.2h4.7Z"/>
    <path class="st0" d="M585,873.8v-30.9h6v30.9h-6Z"/>
    <path class="st0" d="M630.6,873.8l-2.7-7.8h-12.2l-2.6,7.8h-6.3l11.2-30.9h7.8l11.2,30.9h-6.4ZM621.7,848.1l-4.6,13.1h9.1l-4.5-13.1Z"/>
    <path class="st0" d="M674,873.8v-30.9h18.7v4.9h-12.6v7.9h11.8v4.7h-11.8v8.4h13.2v5h-19.2Z"/>
    <path class="st0" d="M731.5,873.8v-30.9h11.1c7,0,11.7,3.3,11.7,9.9s-4.7,10.1-11.6,10.1h-5.1v11h-6ZM742.2,858c3.6,0,6-1.7,6-5.2s-2.6-5-6.9-5h-3.7v10.2h4.7Z"/>
    <path class="st0" d="M771.1,873.8v-30.9h6v30.9h-6Z"/>
    <path class="st0" d="M795.4,873.8v-30.9h6v25.9h13v5h-19Z"/>
    <path class="st0" d="M851.2,873.8l-2.7-7.8h-12.2l-2.6,7.8h-6.3l11.2-30.9h7.8l11.2,30.9h-6.4ZM842.4,848.1l-4.6,13.1h9.1l-4.5-13.1Z"/>
    <path class="st0" d="M875.8,873.8v-26h-9.3v-4.9h24.7v4.9h-9.3v26h-6Z"/>
    <path class="st0" d="M906.8,873.8v-30.9h18.7v4.9h-12.6v7.9h11.8v4.7h-11.8v8.4h13.2v5h-19.2Z"/>
    <path class="st0" d="M959.8,852.2c-.3-4.4-3.6-5.2-6.3-5.2s-5.4,1-5.4,3.7c0,7.2,18,2.7,18,14.3s-4,9.5-12.6,9.5-12.1-1.1-12.5-10.5h6c.2,4.5,3.7,5.8,7.1,5.8s5.8-1.1,5.8-3.9c0-7.3-18-2.4-18-14.6s6-8.8,12.3-8.8,11.3,1.5,11.7,9.8h-6Z"/>
  </g>
</svg>